/* XPM */
static char * bar_xpm[] = {
"14 20 18 1",
" 	c None",
".	c #414141",
"+	c #303030",
"@	c #2F2F2F",
"#	c #2E2E2E",
"$	c #2D2D2D",
"%	c #2C2D2C",
"&	c #2C2C2C",
"*	c #2B2C2B",
"=	c #2B2B2B",
"-	c #2A2B2A",
";	c #2A2A2A",
">	c #292A29",
",	c #292929",
"'	c #282928",
")	c #282828",
"!	c #272827",
"~	c #262726",
"..............",
"++++++++++++++",
"@@@@@@@@@@@@@@",
"@@@@@@@@@@@@@@",
"##############",
"##############",
"$$$$$$$$$$$$$$",
"$$$$$$$$$%%%%%",
"&&&&&&&&&&&&&&",
"**************",
"==============",
"--------------",
";;;;;;;;;;;;;;",
">>>>>>>>>>>>>>",
",,,,,,,,,,,,''",
"''''''''''''''",
"))))!!!!!!!!!!",
"!!!!!!!!!!!!!!",
"~~~~~~~~~~~~~~",
"~~~~~~~~~~~~~~"};
