/* XPM */
static char * close_pressed_xpm[] = {
"20 20 34 1",
" 	c None",
".	c #414141",
"+	c #303030",
"@	c #2F2F2F",
"#	c #2E2E2E",
"$	c #2D2D2D",
"%	c #303130",
"&	c #2C2D2C",
"*	c #484848",
"=	c #4A4A4A",
"-	c #2C2C2C",
";	c #656665",
">	c #666666",
",	c #2B2C2B",
"'	c #8B8B8B",
")	c #898989",
"!	c #2B2B2B",
"~	c #717271",
"{	c #6E6E6E",
"]	c #2A2B2A",
"^	c #7D7E7D",
"/	c #535353",
"(	c #545454",
"_	c #7C7C7C",
":	c #2A2A2A",
"<	c #292A29",
"[	c #5F605F",
"}	c #737373",
"|	c #5D5D5D",
"1	c #292929",
"2	c #282928",
"3	c #282828",
"4	c #272827",
"5	c #262726",
"....................",
"++++++++++++++++++++",
"@@@@@@@@@@@@@@@@@@@@",
"@@@@@@@@@@@@@@@@@@@@",
"####################",
"####################",
"$$$%######%$$$$$$$$$",
"$&$*$$$$$$=$$&&&&&&&",
"---;%&&&&%>---------",
",,,-'----)-,,,,,,,,,",
"!!!,~>%%;{,!!!!!!!!!",
"]]]!%^/(_%!]]]]]]]]]",
":::<][}}|]]:::::::::",
"<<<:<%/(%<:<<<<<<<<<",
"11111111111111111122",
"22222222222222222222",
"33333344444444444444",
"44444444444444444444",
"55555555555555555555",
"55555555555555555555"};
