/* XPM */
static char * menu_xpm[] = {
"18 20 38 1",
" 	c None",
".	c #414141",
"+	c #2B2B2B",
"@	c #2B2B2A",
"#	c #2B2A2B",
"$	c #2A2A2A",
"%	c #2A2B2A",
"&	c #2A2A2B",
"*	c #2A2B2B",
"=	c #2B2A2A",
"-	c #2A292A",
";	c #292A2A",
">	c #2A2A29",
",	c #29292A",
"'	c #292929",
")	c #2A2929",
"!	c #292A29",
"~	c #292829",
"{	c #292828",
"]	c #292928",
"^	c #282929",
"/	c #282829",
"(	c #282828",
"_	c #282928",
":	c #282827",
"<	c #272827",
"[	c #272828",
"}	c #282728",
"|	c #272727",
"1	c #282727",
"2	c #272728",
"3	c #272726",
"4	c #262727",
"5	c #262627",
"6	c #262726",
"7	c #272627",
"8	c #272626",
"9	c #262626",
"..................",
"++++++++++++++++++",
"++++++++++++++++++",
"++++++++++++++++++",
"++++++++++++++++++",
"++@++#++$%+++@+#&+",
"$%$$#+%&&#*###&@&=",
"$&$$$=$&%@%&#$$$%&",
"$$$$-;;$->;>$>$$;$",
",,'>)-;!,;-;;;-!-)",
"'>!,!!'''),;>'!'';",
"~{']'^''''''']''''",
"'/(/'/~'_'(]{~'~']",
"{_((_(/_{{((/{(/{(",
":((:((((((((((((((",
"(:<(([((}:[(:(:(:}",
"<}|12111<}21<|<<:<",
"3||||||||||||||||2",
"456|74384|34734|33",
"986394479993896993"};
